{
  "header": {
    "PPQ": 96,
    "bpm": 120,
    "name": ""
  },
  "tempo": [],
  "timeSignature": [],
  "startTime": 0,
  "duration": 31.666666666666668,
  "tracks": [
    {
      "startTime": 0,
      "duration": 31.666666666666668,
      "length": 84,
      "notes": [
        {
          "name": "D4",
          "midi": 62,
          "time": 0,
          "velocity": 0.6299212598425197,
          "duration": 0.25
        },
        {
          "name": "D4",
          "midi": 62,
          "time": 0.25,
          "velocity": 0.6299212598425197,
          "duration": 0.25
        },
        {
          "name": "G4",
          "midi": 67,
          "time": 0.5,
          "velocity": 0.6299212598425197,
          "duration": 0.5
        },
        {
          "name": "F#4",
          "midi": 66,
          "time": 1,
          "velocity": 0.6299212598425197,
          "duration": 0.25
        },
        {
          "name": "G4",
          "midi": 67,
          "time": 1.25,
          "velocity": 0.6299212598425197,
          "duration": 0.25
        },
        {
          "name": "A4",
          "midi": 69,
          "time": 1.5,
          "velocity": 0.6299212598425197,
          "duration": 0.5
        },
        {
          "name": "G4",
          "midi": 67,
          "time": 2,
          "velocity": 0.6299212598425197,
          "duration": 0.25
        },
        {
          "name": "A4",
          "midi": 69,
          "time": 2.25,
          "velocity": 0.6299212598425197,
          "duration": 0.25
        },
        {
          "name": "B4",
          "midi": 71,
          "time": 2.5,
          "velocity": 0.6299212598425197,
          "duration": 0.25
        },
        {
          "name": "B4",
          "midi": 71,
          "time": 2.75,
          "velocity": 0.6299212598425197,
          "duration": 0.25
        },
        {
          "name": "C5",
          "midi": 72,
          "time": 3,
          "velocity": 0.6299212598425197,
          "duration": 0.25
        },
        {
          "name": "B4",
          "midi": 71,
          "time": 3.25,
          "velocity": 0.6299212598425197,
          "duration": 0.25
        },
        {
          "name": "E4",
          "midi": 64,
          "time": 3.5,
          "velocity": 0.6299212598425197,
          "duration": 0.5
        },
        {
          "name": "A4",
          "midi": 69,
          "time": 4,
          "velocity": 0.6299212598425197,
          "duration": 0.25
        },
        {
          "name": "A4",
          "midi": 69,
          "time": 4.25,
          "velocity": 0.6299212598425197,
          "duration": 0.25
        },
        {
          "name": "G4",
          "midi": 67,
          "time": 4.5,
          "velocity": 0.6299212598425197,
          "duration": 0.5
        },
        {
          "name": "G4",
          "midi": 67,
          "time": 5,
          "velocity": 0.6299212598425197,
          "duration": 0.25
        },
        {
          "name": "G4",
          "midi": 67,
          "time": 5.25,
          "velocity": 0.6299212598425197,
          "duration": 0.25
        },
        {
          "name": "F#4",
          "midi": 66,
          "time": 5.5,
          "velocity": 0.6299212598425197,
          "duration": 0.5
        },
        {
          "name": "E4",
          "midi": 64,
          "time": 6,
          "velocity": 0.6299212598425197,
          "duration": 0.25
        },
        {
          "name": "F#4",
          "midi": 66,
          "time": 6.25,
          "velocity": 0.6299212598425197,
          "duration": 0.25
        },
        {
          "name": "G4",
          "midi": 67,
          "time": 6.5,
          "velocity": 0.6299212598425197,
          "duration": 1
        },
        {
          "name": "D4",
          "midi": 62,
          "time": 8,
          "velocity": 0.6299212598425197,
          "duration": 0.25
        },
        {
          "name": "D4",
          "midi": 62,
          "time": 8.25,
          "velocity": 0.6299212598425197,
          "duration": 0.25
        },
        {
          "name": "G4",
          "midi": 67,
          "time": 8.5,
          "velocity": 0.6299212598425197,
          "duration": 0.5
        },
        {
          "name": "F#4",
          "midi": 66,
          "time": 9,
          "velocity": 0.6299212598425197,
          "duration": 0.25
        },
        {
          "name": "G4",
          "midi": 67,
          "time": 9.25,
          "velocity": 0.6299212598425197,
          "duration": 0.25
        },
        {
          "name": "A4",
          "midi": 69,
          "time": 9.5,
          "velocity": 0.6299212598425197,
          "duration": 0.5
        },
        {
          "name": "G4",
          "midi": 67,
          "time": 10,
          "velocity": 0.6299212598425197,
          "duration": 0.25
        },
        {
          "name": "A4",
          "midi": 69,
          "time": 10.25,
          "velocity": 0.6299212598425197,
          "duration": 0.25
        },
        {
          "name": "B4",
          "midi": 71,
          "time": 10.5,
          "velocity": 0.6299212598425197,
          "duration": 0.25
        },
        {
          "name": "B4",
          "midi": 71,
          "time": 10.75,
          "velocity": 0.6299212598425197,
          "duration": 0.25
        },
        {
          "name": "C5",
          "midi": 72,
          "time": 11,
          "velocity": 0.6299212598425197,
          "duration": 0.25
        },
        {
          "name": "B4",
          "midi": 71,
          "time": 11.25,
          "velocity": 0.6299212598425197,
          "duration": 0.25
        },
        {
          "name": "E4",
          "midi": 64,
          "time": 11.5,
          "velocity": 0.6299212598425197,
          "duration": 0.5
        },
        {
          "name": "A4",
          "midi": 69,
          "time": 12,
          "velocity": 0.6299212598425197,
          "duration": 0.25
        },
        {
          "name": "A4",
          "midi": 69,
          "time": 12.25,
          "velocity": 0.6299212598425197,
          "duration": 0.25
        },
        {
          "name": "G4",
          "midi": 67,
          "time": 12.5,
          "velocity": 0.6299212598425197,
          "duration": 0.5
        },
        {
          "name": "G4",
          "midi": 67,
          "time": 13,
          "velocity": 0.6299212598425197,
          "duration": 0.25
        },
        {
          "name": "G4",
          "midi": 67,
          "time": 13.25,
          "velocity": 0.6299212598425197,
          "duration": 0.25
        },
        {
          "name": "F#4",
          "midi": 66,
          "time": 13.5,
          "velocity": 0.6299212598425197,
          "duration": 0.5
        },
        {
          "name": "E4",
          "midi": 64,
          "time": 14,
          "velocity": 0.6299212598425197,
          "duration": 0.25
        },
        {
          "name": "F#4",
          "midi": 66,
          "time": 14.25,
          "velocity": 0.6299212598425197,
          "duration": 0.25
        },
        {
          "name": "G4",
          "midi": 67,
          "time": 14.5,
          "velocity": 0.6299212598425197,
          "duration": 1
        },
        {
          "name": "G4",
          "midi": 67,
          "time": 16,
          "velocity": 0.6299212598425197,
          "duration": 0.25
        },
        {
          "name": "B4",
          "midi": 71,
          "time": 16.25,
          "velocity": 0.6299212598425197,
          "duration": 0.25
        },
        {
          "name": "D5",
          "midi": 74,
          "time": 16.5,
          "velocity": 0.6299212598425197,
          "duration": 0.5
        },
        {
          "name": "B4",
          "midi": 71,
          "time": 17,
          "velocity": 0.6299212598425197,
          "duration": 0.25
        },
        {
          "name": "A4",
          "midi": 69,
          "time": 17.25,
          "velocity": 0.6299212598425197,
          "duration": 0.25
        },
        {
          "name": "G4",
          "midi": 67,
          "time": 17.5,
          "velocity": 0.6299212598425197,
          "duration": 0.5
        },
        {
          "name": "F#4",
          "midi": 66,
          "time": 18,
          "velocity": 0.6299212598425197,
          "duration": 0.25
        },
        {
          "name": "G4",
          "midi": 67,
          "time": 18.25,
          "velocity": 0.6299212598425197,
          "duration": 0.25
        },
        {
          "name": "A4",
          "midi": 69,
          "time": 18.5,
          "velocity": 0.6299212598425197,
          "duration": 0.25
        },
        {
          "name": "G4",
          "midi": 67,
          "time": 18.75,
          "velocity": 0.6299212598425197,
          "duration": 0.25
        },
        {
          "name": "F#4",
          "midi": 66,
          "time": 19,
          "velocity": 0.6299212598425197,
          "duration": 0.25
        },
        {
          "name": "E4",
          "midi": 64,
          "time": 19.25,
          "velocity": 0.6299212598425197,
          "duration": 0.25
        },
        {
          "name": "D4",
          "midi": 62,
          "time": 19.5,
          "velocity": 0.6299212598425197,
          "duration": 0.5
        },
        {
          "name": "G4",
          "midi": 67,
          "time": 20,
          "velocity": 0.6299212598425197,
          "duration": 0.25
        },
        {
          "name": "B4",
          "midi": 71,
          "time": 20.25,
          "velocity": 0.6299212598425197,
          "duration": 0.25
        },
        {
          "name": "D5",
          "midi": 74,
          "time": 20.5,
          "velocity": 0.6299212598425197,
          "duration": 0.5
        },
        {
          "name": "B4",
          "midi": 71,
          "time": 21,
          "velocity": 0.6299212598425197,
          "duration": 0.25
        },
        {
          "name": "A4",
          "midi": 69,
          "time": 21.25,
          "velocity": 0.6299212598425197,
          "duration": 0.25
        },
        {
          "name": "G4",
          "midi": 67,
          "time": 21.5,
          "velocity": 0.6299212598425197,
          "duration": 0.5
        },
        {
          "name": "F#4",
          "midi": 66,
          "time": 22,
          "velocity": 0.6299212598425197,
          "duration": 0.25
        },
        {
          "name": "G4",
          "midi": 67,
          "time": 22.25,
          "velocity": 0.6299212598425197,
          "duration": 0.25
        },
        {
          "name": "A4",
          "midi": 69,
          "time": 22.5,
          "velocity": 0.6299212598425197,
          "duration": 1
        },
        {
          "name": "D4",
          "midi": 62,
          "time": 24.5,
          "velocity": 0.6299212598425197,
          "duration": 0.25
        },
        {
          "name": "G4",
          "midi": 67,
          "time": 24.75,
          "velocity": 0.6299212598425197,
          "duration": 0.25
        },
        {
          "name": "G4",
          "midi": 67,
          "time": 25,
          "velocity": 0.6299212598425197,
          "duration": 0.6666666666666679
        },
        {
          "name": "A4",
          "midi": 69,
          "time": 25.666666666666668,
          "velocity": 0.6299212598425197,
          "duration": 1
        },
        {
          "name": "B4",
          "midi": 71,
          "time": 26.666666666666668,
          "velocity": 0.6299212598425197,
          "duration": 0.25
        },
        {
          "name": "B4",
          "midi": 71,
          "time": 26.916666666666668,
          "velocity": 0.6299212598425197,
          "duration": 0.25
        },
        {
          "name": "C5",
          "midi": 72,
          "time": 27.166666666666668,
          "velocity": 0.6299212598425197,
          "duration": 0.25
        },
        {
          "name": "B4",
          "midi": 71,
          "time": 27.416666666666668,
          "velocity": 0.6299212598425197,
          "duration": 0.25
        },
        {
          "name": "E4",
          "midi": 64,
          "time": 27.666666666666668,
          "velocity": 0.6299212598425197,
          "duration": 0.5
        },
        {
          "name": "A4",
          "midi": 69,
          "time": 28.166666666666668,
          "velocity": 0.6299212598425197,
          "duration": 0.25
        },
        {
          "name": "A4",
          "midi": 69,
          "time": 28.416666666666668,
          "velocity": 0.6299212598425197,
          "duration": 0.25
        },
        {
          "name": "G4",
          "midi": 67,
          "time": 28.666666666666668,
          "velocity": 0.6299212598425197,
          "duration": 0.5
        },
        {
          "name": "G4",
          "midi": 67,
          "time": 29.166666666666668,
          "velocity": 0.6299212598425197,
          "duration": 0.25
        },
        {
          "name": "G4",
          "midi": 67,
          "time": 29.416666666666668,
          "velocity": 0.6299212598425197,
          "duration": 0.25
        },
        {
          "name": "F#4",
          "midi": 66,
          "time": 29.666666666666668,
          "velocity": 0.6299212598425197,
          "duration": 0.5
        },
        {
          "name": "E4",
          "midi": 64,
          "time": 30.166666666666668,
          "velocity": 0.6299212598425197,
          "duration": 0.25
        },
        {
          "name": "F#4",
          "midi": 66,
          "time": 30.416666666666668,
          "velocity": 0.6299212598425197,
          "duration": 0.25
        },
        {
          "name": "G4",
          "midi": 67,
          "time": 30.666666666666668,
          "velocity": 0.6299212598425197,
          "duration": 1
        }
      ],
      "controlChanges": {},
      "id": 0,
      "instrumentNumber": 1,
      "instrument": "bright acoustic piano",
      "instrumentFamily": "piano",
      "channelNumber": 0,
      "isPercussion": false
    }
  ]
}