{
  "header": {
    "PPQ": 96,
    "bpm": 120,
    "name": ""
  },
  "tempo": [],
  "timeSignature": [],
  "startTime": 0,
  "duration": 63.5,
  "tracks": [
    {
      "startTime": 0,
      "duration": 63.5,
      "length": 154,
      "notes": [
        {
          "name": "A4",
          "midi": 69,
          "time": 0,
          "velocity": 0.6299212598425197,
          "duration": 0.25
        },
        {
          "name": "C5",
          "midi": 72,
          "time": 0.25,
          "velocity": 0.6299212598425197,
          "duration": 0.25
        },
        {
          "name": "E5",
          "midi": 76,
          "time": 0.5,
          "velocity": 0.6299212598425197,
          "duration": 0.25
        },
        {
          "name": "G5",
          "midi": 79,
          "time": 0.75,
          "velocity": 0.6299212598425197,
          "duration": 0.25
        },
        {
          "name": "E5",
          "midi": 76,
          "time": 1,
          "velocity": 0.6299212598425197,
          "duration": 0.5
        },
        {
          "name": "E5",
          "midi": 76,
          "time": 1.5,
          "velocity": 0.6299212598425197,
          "duration": 0.25
        },
        {
          "name": "D5",
          "midi": 74,
          "time": 1.75,
          "velocity": 0.6299212598425197,
          "duration": 0.25
        },
        {
          "name": "E5",
          "midi": 76,
          "time": 2,
          "velocity": 0.6299212598425197,
          "duration": 0.5
        },
        {
          "name": "E5",
          "midi": 76,
          "time": 2.5,
          "velocity": 0.6299212598425197,
          "duration": 0.25
        },
        {
          "name": "D5",
          "midi": 74,
          "time": 2.75,
          "velocity": 0.6299212598425197,
          "duration": 0.25
        },
        {
          "name": "E5",
          "midi": 76,
          "time": 3,
          "velocity": 0.6299212598425197,
          "duration": 0.5
        },
        {
          "name": "A4",
          "midi": 69,
          "time": 3.5,
          "velocity": 0.6299212598425197,
          "duration": 0.25
        },
        {
          "name": "B4",
          "midi": 71,
          "time": 3.75,
          "velocity": 0.6299212598425197,
          "duration": 0.25
        },
        {
          "name": "C5",
          "midi": 72,
          "time": 4,
          "velocity": 0.6299212598425197,
          "duration": 0.25
        },
        {
          "name": "E5",
          "midi": 76,
          "time": 4.25,
          "velocity": 0.6299212598425197,
          "duration": 0.25
        },
        {
          "name": "D5",
          "midi": 74,
          "time": 4.5,
          "velocity": 0.6299212598425197,
          "duration": 0.25
        },
        {
          "name": "C5",
          "midi": 72,
          "time": 4.75,
          "velocity": 0.6299212598425197,
          "duration": 0.25
        },
        {
          "name": "A4",
          "midi": 69,
          "time": 5,
          "velocity": 0.6299212598425197,
          "duration": 0.5
        },
        {
          "name": "G4",
          "midi": 67,
          "time": 5.5,
          "velocity": 0.6299212598425197,
          "duration": 0.5
        },
        {
          "name": "E4",
          "midi": 64,
          "time": 6,
          "velocity": 0.6299212598425197,
          "duration": 2
        },
        {
          "name": "A4",
          "midi": 69,
          "time": 8,
          "velocity": 0.6299212598425197,
          "duration": 0.25
        },
        {
          "name": "C5",
          "midi": 72,
          "time": 8.25,
          "velocity": 0.6299212598425197,
          "duration": 0.25
        },
        {
          "name": "E5",
          "midi": 76,
          "time": 8.5,
          "velocity": 0.6299212598425197,
          "duration": 0.25
        },
        {
          "name": "G5",
          "midi": 79,
          "time": 8.75,
          "velocity": 0.6299212598425197,
          "duration": 0.25
        },
        {
          "name": "E5",
          "midi": 76,
          "time": 9,
          "velocity": 0.6299212598425197,
          "duration": 0.5
        },
        {
          "name": "E5",
          "midi": 76,
          "time": 9.5,
          "velocity": 0.6299212598425197,
          "duration": 0.25
        },
        {
          "name": "D5",
          "midi": 74,
          "time": 9.75,
          "velocity": 0.6299212598425197,
          "duration": 0.25
        },
        {
          "name": "E5",
          "midi": 76,
          "time": 10,
          "velocity": 0.6299212598425197,
          "duration": 0.5
        },
        {
          "name": "E5",
          "midi": 76,
          "time": 10.5,
          "velocity": 0.6299212598425197,
          "duration": 0.25
        },
        {
          "name": "D5",
          "midi": 74,
          "time": 10.75,
          "velocity": 0.6299212598425197,
          "duration": 0.25
        },
        {
          "name": "E5",
          "midi": 76,
          "time": 11,
          "velocity": 0.6299212598425197,
          "duration": 0.5
        },
        {
          "name": "A4",
          "midi": 69,
          "time": 11.5,
          "velocity": 0.6299212598425197,
          "duration": 0.25
        },
        {
          "name": "B4",
          "midi": 71,
          "time": 11.75,
          "velocity": 0.6299212598425197,
          "duration": 0.25
        },
        {
          "name": "C5",
          "midi": 72,
          "time": 12,
          "velocity": 0.6299212598425197,
          "duration": 0.25
        },
        {
          "name": "E5",
          "midi": 76,
          "time": 12.25,
          "velocity": 0.6299212598425197,
          "duration": 0.25
        },
        {
          "name": "D5",
          "midi": 74,
          "time": 12.5,
          "velocity": 0.6299212598425197,
          "duration": 0.25
        },
        {
          "name": "C5",
          "midi": 72,
          "time": 12.75,
          "velocity": 0.6299212598425197,
          "duration": 0.25
        },
        {
          "name": "A4",
          "midi": 69,
          "time": 13,
          "velocity": 0.6299212598425197,
          "duration": 0.5
        },
        {
          "name": "G4",
          "midi": 67,
          "time": 13.5,
          "velocity": 0.6299212598425197,
          "duration": 0.5
        },
        {
          "name": "A4",
          "midi": 69,
          "time": 14,
          "velocity": 0.6299212598425197,
          "duration": 1.5
        },
        {
          "name": "A4",
          "midi": 69,
          "time": 15.5,
          "velocity": 0.6299212598425197,
          "duration": 0.25
        },
        {
          "name": "B4",
          "midi": 71,
          "time": 15.75,
          "velocity": 0.6299212598425197,
          "duration": 0.25
        },
        {
          "name": "C5",
          "midi": 72,
          "time": 16,
          "velocity": 0.6299212598425197,
          "duration": 0.25
        },
        {
          "name": "D5",
          "midi": 74,
          "time": 16.25,
          "velocity": 0.6299212598425197,
          "duration": 0.25
        },
        {
          "name": "E5",
          "midi": 76,
          "time": 16.5,
          "velocity": 0.6299212598425197,
          "duration": 0.25
        },
        {
          "name": "F5",
          "midi": 77,
          "time": 16.75,
          "velocity": 0.6299212598425197,
          "duration": 0.25
        },
        {
          "name": "G5",
          "midi": 79,
          "time": 17,
          "velocity": 0.6299212598425197,
          "duration": 0.5
        },
        {
          "name": "F5",
          "midi": 77,
          "time": 17.5,
          "velocity": 0.6299212598425197,
          "duration": 0.25
        },
        {
          "name": "E5",
          "midi": 76,
          "time": 17.75,
          "velocity": 0.6299212598425197,
          "duration": 0.25
        },
        {
          "name": "D5",
          "midi": 74,
          "time": 18,
          "velocity": 0.6299212598425197,
          "duration": 0.5
        },
        {
          "name": "D5",
          "midi": 74,
          "time": 18.5,
          "velocity": 0.6299212598425197,
          "duration": 0.25
        },
        {
          "name": "E5",
          "midi": 76,
          "time": 18.75,
          "velocity": 0.6299212598425197,
          "duration": 0.25
        },
        {
          "name": "D5",
          "midi": 74,
          "time": 19,
          "velocity": 0.6299212598425197,
          "duration": 1
        },
        {
          "name": "A4",
          "midi": 69,
          "time": 20,
          "velocity": 0.6299212598425197,
          "duration": 0.25
        },
        {
          "name": "B4",
          "midi": 71,
          "time": 20.25,
          "velocity": 0.6299212598425197,
          "duration": 0.25
        },
        {
          "name": "C5",
          "midi": 72,
          "time": 20.5,
          "velocity": 0.6299212598425197,
          "duration": 0.25
        },
        {
          "name": "D5",
          "midi": 74,
          "time": 20.75,
          "velocity": 0.6299212598425197,
          "duration": 0.25
        },
        {
          "name": "E5",
          "midi": 76,
          "time": 21,
          "velocity": 0.6299212598425197,
          "duration": 0.5
        },
        {
          "name": "B4",
          "midi": 71,
          "time": 21.5,
          "velocity": 0.6299212598425197,
          "duration": 0.25
        },
        {
          "name": "A4",
          "midi": 69,
          "time": 21.75,
          "velocity": 0.6299212598425197,
          "duration": 0.25
        },
        {
          "name": "B4",
          "midi": 71,
          "time": 22,
          "velocity": 0.6299212598425197,
          "duration": 1.5
        },
        {
          "name": "A4",
          "midi": 69,
          "time": 23.5,
          "velocity": 0.6299212598425197,
          "duration": 0.25
        },
        {
          "name": "B4",
          "midi": 71,
          "time": 23.75,
          "velocity": 0.6299212598425197,
          "duration": 0.25
        },
        {
          "name": "C5",
          "midi": 72,
          "time": 24,
          "velocity": 0.6299212598425197,
          "duration": 0.25
        },
        {
          "name": "D5",
          "midi": 74,
          "time": 24.25,
          "velocity": 0.6299212598425197,
          "duration": 0.25
        },
        {
          "name": "E5",
          "midi": 76,
          "time": 24.5,
          "velocity": 0.6299212598425197,
          "duration": 0.25
        },
        {
          "name": "F5",
          "midi": 77,
          "time": 24.75,
          "velocity": 0.6299212598425197,
          "duration": 0.25
        },
        {
          "name": "G5",
          "midi": 79,
          "time": 25,
          "velocity": 0.6299212598425197,
          "duration": 0.5
        },
        {
          "name": "F5",
          "midi": 77,
          "time": 25.5,
          "velocity": 0.6299212598425197,
          "duration": 0.25
        },
        {
          "name": "E5",
          "midi": 76,
          "time": 25.75,
          "velocity": 0.6299212598425197,
          "duration": 0.25
        },
        {
          "name": "D5",
          "midi": 74,
          "time": 26,
          "velocity": 0.6299212598425197,
          "duration": 0.5
        },
        {
          "name": "D5",
          "midi": 74,
          "time": 26.5,
          "velocity": 0.6299212598425197,
          "duration": 0.25
        },
        {
          "name": "E5",
          "midi": 76,
          "time": 26.75,
          "velocity": 0.6299212598425197,
          "duration": 0.25
        },
        {
          "name": "D5",
          "midi": 74,
          "time": 27,
          "velocity": 0.6299212598425197,
          "duration": 0.5
        },
        {
          "name": "A4",
          "midi": 69,
          "time": 27.5,
          "velocity": 0.6299212598425197,
          "duration": 0.25
        },
        {
          "name": "B4",
          "midi": 71,
          "time": 27.75,
          "velocity": 0.6299212598425197,
          "duration": 0.25
        },
        {
          "name": "C5",
          "midi": 72,
          "time": 28,
          "velocity": 0.6299212598425197,
          "duration": 0.25
        },
        {
          "name": "E5",
          "midi": 76,
          "time": 28.25,
          "velocity": 0.6299212598425197,
          "duration": 0.25
        },
        {
          "name": "D5",
          "midi": 74,
          "time": 28.5,
          "velocity": 0.6299212598425197,
          "duration": 0.25
        },
        {
          "name": "C5",
          "midi": 72,
          "time": 28.75,
          "velocity": 0.6299212598425197,
          "duration": 0.25
        },
        {
          "name": "A4",
          "midi": 69,
          "time": 29,
          "velocity": 0.6299212598425197,
          "duration": 0.5
        },
        {
          "name": "G4",
          "midi": 67,
          "time": 29.5,
          "velocity": 0.6299212598425197,
          "duration": 0.5
        },
        {
          "name": "A4",
          "midi": 69,
          "time": 30,
          "velocity": 0.6299212598425197,
          "duration": 1.5
        },
        {
          "name": "E5",
          "midi": 76,
          "time": 31.5,
          "velocity": 0.6299212598425197,
          "duration": 0.5
        },
        {
          "name": "A5",
          "midi": 81,
          "time": 32,
          "velocity": 0.6299212598425197,
          "duration": 1
        },
        {
          "name": "G5",
          "midi": 79,
          "time": 33,
          "velocity": 0.6299212598425197,
          "duration": 0.5
        },
        {
          "name": "E5",
          "midi": 76,
          "time": 33.5,
          "velocity": 0.6299212598425197,
          "duration": 0.25
        },
        {
          "name": "G5",
          "midi": 79,
          "time": 33.75,
          "velocity": 0.6299212598425197,
          "duration": 0.25
        },
        {
          "name": "A5",
          "midi": 81,
          "time": 34,
          "velocity": 0.6299212598425197,
          "duration": 1.5
        },
        {
          "name": "E5",
          "midi": 76,
          "time": 35.5,
          "velocity": 0.6299212598425197,
          "duration": 0.25
        },
        {
          "name": "D5",
          "midi": 74,
          "time": 35.75,
          "velocity": 0.6299212598425197,
          "duration": 0.25
        },
        {
          "name": "C5",
          "midi": 72,
          "time": 36,
          "velocity": 0.6299212598425197,
          "duration": 0.25
        },
        {
          "name": "A4",
          "midi": 69,
          "time": 36.25,
          "velocity": 0.6299212598425197,
          "duration": 0.25
        },
        {
          "name": "C5",
          "midi": 72,
          "time": 36.5,
          "velocity": 0.6299212598425197,
          "duration": 0.25
        },
        {
          "name": "D5",
          "midi": 74,
          "time": 36.75,
          "velocity": 0.6299212598425197,
          "duration": 0.25
        },
        {
          "name": "E5",
          "midi": 76,
          "time": 37,
          "velocity": 0.6299212598425197,
          "duration": 0.5
        },
        {
          "name": "E5",
          "midi": 76,
          "time": 37.5,
          "velocity": 0.6299212598425197,
          "duration": 0.25
        },
        {
          "name": "D5",
          "midi": 74,
          "time": 37.75,
          "velocity": 0.6299212598425197,
          "duration": 0.25
        },
        {
          "name": "E5",
          "midi": 76,
          "time": 38,
          "velocity": 0.6299212598425197,
          "duration": 1.5
        },
        {
          "name": "E5",
          "midi": 76,
          "time": 39.5,
          "velocity": 0.6299212598425197,
          "duration": 0.5
        },
        {
          "name": "A5",
          "midi": 81,
          "time": 40,
          "velocity": 0.6299212598425197,
          "duration": 1
        },
        {
          "name": "G5",
          "midi": 79,
          "time": 41,
          "velocity": 0.6299212598425197,
          "duration": 0.5
        },
        {
          "name": "E5",
          "midi": 76,
          "time": 41.5,
          "velocity": 0.6299212598425197,
          "duration": 0.25
        },
        {
          "name": "G5",
          "midi": 79,
          "time": 41.75,
          "velocity": 0.6299212598425197,
          "duration": 0.25
        },
        {
          "name": "A5",
          "midi": 81,
          "time": 42,
          "velocity": 0.6299212598425197,
          "duration": 1.5
        },
        {
          "name": "E5",
          "midi": 76,
          "time": 43.5,
          "velocity": 0.6299212598425197,
          "duration": 0.25
        },
        {
          "name": "D5",
          "midi": 74,
          "time": 43.75,
          "velocity": 0.6299212598425197,
          "duration": 0.25
        },
        {
          "name": "C5",
          "midi": 72,
          "time": 44,
          "velocity": 0.6299212598425197,
          "duration": 0.25
        },
        {
          "name": "A4",
          "midi": 69,
          "time": 44.25,
          "velocity": 0.6299212598425197,
          "duration": 0.25
        },
        {
          "name": "C5",
          "midi": 72,
          "time": 44.5,
          "velocity": 0.6299212598425197,
          "duration": 0.25
        },
        {
          "name": "D5",
          "midi": 74,
          "time": 44.75,
          "velocity": 0.6299212598425197,
          "duration": 0.25
        },
        {
          "name": "E5",
          "midi": 76,
          "time": 45,
          "velocity": 0.6299212598425197,
          "duration": 0.5
        },
        {
          "name": "A4",
          "midi": 69,
          "time": 45.5,
          "velocity": 0.6299212598425197,
          "duration": 0.25
        },
        {
          "name": "G4",
          "midi": 67,
          "time": 45.75,
          "velocity": 0.6299212598425197,
          "duration": 0.25
        },
        {
          "name": "A4",
          "midi": 69,
          "time": 46,
          "velocity": 0.6299212598425197,
          "duration": 1.5
        },
        {
          "name": "A4",
          "midi": 69,
          "time": 47.5,
          "velocity": 0.6299212598425197,
          "duration": 0.25
        },
        {
          "name": "C5",
          "midi": 72,
          "time": 47.75,
          "velocity": 0.6299212598425197,
          "duration": 0.25
        },
        {
          "name": "E5",
          "midi": 76,
          "time": 48,
          "velocity": 0.6299212598425197,
          "duration": 0.25
        },
        {
          "name": "G5",
          "midi": 79,
          "time": 48.25,
          "velocity": 0.6299212598425197,
          "duration": 0.25
        },
        {
          "name": "E5",
          "midi": 76,
          "time": 48.5,
          "velocity": 0.6299212598425197,
          "duration": 0.5
        },
        {
          "name": "E5",
          "midi": 76,
          "time": 49,
          "velocity": 0.6299212598425197,
          "duration": 0.25
        },
        {
          "name": "D5",
          "midi": 74,
          "time": 49.25,
          "velocity": 0.6299212598425197,
          "duration": 0.25
        },
        {
          "name": "E5",
          "midi": 76,
          "time": 49.5,
          "velocity": 0.6299212598425197,
          "duration": 0.5
        },
        {
          "name": "E5",
          "midi": 76,
          "time": 50,
          "velocity": 0.6299212598425197,
          "duration": 0.25
        },
        {
          "name": "D5",
          "midi": 74,
          "time": 50.25,
          "velocity": 0.6299212598425197,
          "duration": 0.25
        },
        {
          "name": "E5",
          "midi": 76,
          "time": 50.5,
          "velocity": 0.6299212598425197,
          "duration": 0.5
        },
        {
          "name": "A4",
          "midi": 69,
          "time": 51,
          "velocity": 0.6299212598425197,
          "duration": 0.25
        },
        {
          "name": "B4",
          "midi": 71,
          "time": 51.25,
          "velocity": 0.6299212598425197,
          "duration": 0.25
        },
        {
          "name": "C5",
          "midi": 72,
          "time": 51.5,
          "velocity": 0.6299212598425197,
          "duration": 0.25
        },
        {
          "name": "E5",
          "midi": 76,
          "time": 51.75,
          "velocity": 0.6299212598425197,
          "duration": 0.25
        },
        {
          "name": "D5",
          "midi": 74,
          "time": 52,
          "velocity": 0.6299212598425197,
          "duration": 0.25
        },
        {
          "name": "C5",
          "midi": 72,
          "time": 52.25,
          "velocity": 0.6299212598425197,
          "duration": 0.25
        },
        {
          "name": "A4",
          "midi": 69,
          "time": 52.5,
          "velocity": 0.6299212598425197,
          "duration": 0.5
        },
        {
          "name": "G4",
          "midi": 67,
          "time": 53,
          "velocity": 0.6299212598425197,
          "duration": 0.5
        },
        {
          "name": "E4",
          "midi": 64,
          "time": 53.5,
          "velocity": 0.6299212598425197,
          "duration": 2
        },
        {
          "name": "A4",
          "midi": 69,
          "time": 55.5,
          "velocity": 0.6299212598425197,
          "duration": 0.25
        },
        {
          "name": "C5",
          "midi": 72,
          "time": 55.75,
          "velocity": 0.6299212598425197,
          "duration": 0.25
        },
        {
          "name": "E5",
          "midi": 76,
          "time": 56,
          "velocity": 0.6299212598425197,
          "duration": 0.25
        },
        {
          "name": "G5",
          "midi": 79,
          "time": 56.25,
          "velocity": 0.6299212598425197,
          "duration": 0.25
        },
        {
          "name": "E5",
          "midi": 76,
          "time": 56.5,
          "velocity": 0.6299212598425197,
          "duration": 0.5
        },
        {
          "name": "E5",
          "midi": 76,
          "time": 57,
          "velocity": 0.6299212598425197,
          "duration": 0.25
        },
        {
          "name": "D5",
          "midi": 74,
          "time": 57.25,
          "velocity": 0.6299212598425197,
          "duration": 0.25
        },
        {
          "name": "E5",
          "midi": 76,
          "time": 57.5,
          "velocity": 0.6299212598425197,
          "duration": 0.5
        },
        {
          "name": "E5",
          "midi": 76,
          "time": 58,
          "velocity": 0.6299212598425197,
          "duration": 0.25
        },
        {
          "name": "D5",
          "midi": 74,
          "time": 58.25,
          "velocity": 0.6299212598425197,
          "duration": 0.25
        },
        {
          "name": "E5",
          "midi": 76,
          "time": 58.5,
          "velocity": 0.6299212598425197,
          "duration": 0.5
        },
        {
          "name": "A4",
          "midi": 69,
          "time": 59,
          "velocity": 0.6299212598425197,
          "duration": 0.5
        },
        {
          "name": "B4",
          "midi": 71,
          "time": 59.5,
          "velocity": 0.6299212598425197,
          "duration": 0.5
        },
        {
          "name": "C5",
          "midi": 72,
          "time": 60,
          "velocity": 0.6299212598425197,
          "duration": 0.25
        },
        {
          "name": "E5",
          "midi": 76,
          "time": 60.25,
          "velocity": 0.6299212598425197,
          "duration": 0.25
        },
        {
          "name": "D5",
          "midi": 74,
          "time": 60.5,
          "velocity": 0.6299212598425197,
          "duration": 0.25
        },
        {
          "name": "C5",
          "midi": 72,
          "time": 60.75,
          "velocity": 0.6299212598425197,
          "duration": 0.25
        },
        {
          "name": "E5",
          "midi": 76,
          "time": 62.5,
          "velocity": 0.6299212598425197,
          "duration": 0.5
        },
        {
          "name": "A5",
          "midi": 81,
          "time": 63,
          "velocity": 0.6299212598425197,
          "duration": 0.5
        }
      ],
      "controlChanges": {},
      "id": 0,
      "instrumentNumber": 1,
      "instrument": "bright acoustic piano",
      "instrumentFamily": "piano",
      "channelNumber": 0,
      "isPercussion": false
    }
  ]
}