{
  "header": {
    "PPQ": 96,
    "bpm": 120,
    "name": ""
  },
  "tempo": [],
  "timeSignature": [],
  "startTime": 0,
  "duration": 55.5,
  "tracks": [
    {
      "startTime": 0,
      "duration": 55.5,
      "length": 156,
      "notes": [
        {
          "name": "G4",
          "midi": 67,
          "time": 0,
          "velocity": 0.6299212598425197,
          "duration": 0.25
        },
        {
          "name": "C5",
          "midi": 72,
          "time": 0.25,
          "velocity": 0.6299212598425197,
          "duration": 0.25
        },
        {
          "name": "E5",
          "midi": 76,
          "time": 0.5,
          "velocity": 0.6299212598425197,
          "duration": 0.75
        },
        {
          "name": "G5",
          "midi": 79,
          "time": 1.25,
          "velocity": 0.6299212598425197,
          "duration": 0.25
        },
        {
          "name": "E5",
          "midi": 76,
          "time": 1.5,
          "velocity": 0.6299212598425197,
          "duration": 0.5
        },
        {
          "name": "D5",
          "midi": 74,
          "time": 2,
          "velocity": 0.6299212598425197,
          "duration": 0.25
        },
        {
          "name": "C5",
          "midi": 72,
          "time": 2.25,
          "velocity": 0.6299212598425197,
          "duration": 0.25
        },
        {
          "name": "C5",
          "midi": 72,
          "time": 2.5,
          "velocity": 0.6299212598425197,
          "duration": 0.25
        },
        {
          "name": "C5",
          "midi": 72,
          "time": 2.75,
          "velocity": 0.6299212598425197,
          "duration": 0.25
        },
        {
          "name": "C5",
          "midi": 72,
          "time": 3,
          "velocity": 0.6299212598425197,
          "duration": 0.25
        },
        {
          "name": "A4",
          "midi": 69,
          "time": 3.25,
          "velocity": 0.6299212598425197,
          "duration": 0.25
        },
        {
          "name": "G4",
          "midi": 67,
          "time": 3.5,
          "velocity": 0.6299212598425197,
          "duration": 0.5
        },
        {
          "name": "G4",
          "midi": 67,
          "time": 4,
          "velocity": 0.6299212598425197,
          "duration": 0.25
        },
        {
          "name": "C5",
          "midi": 72,
          "time": 4.25,
          "velocity": 0.6299212598425197,
          "duration": 0.25
        },
        {
          "name": "E5",
          "midi": 76,
          "time": 4.5,
          "velocity": 0.6299212598425197,
          "duration": 0.75
        },
        {
          "name": "G5",
          "midi": 79,
          "time": 5.25,
          "velocity": 0.6299212598425197,
          "duration": 0.25
        },
        {
          "name": "G5",
          "midi": 79,
          "time": 5.5,
          "velocity": 0.6299212598425197,
          "duration": 0.25
        },
        {
          "name": "G5",
          "midi": 79,
          "time": 5.75,
          "velocity": 0.6299212598425197,
          "duration": 0.25
        },
        {
          "name": "A5",
          "midi": 81,
          "time": 6,
          "velocity": 0.6299212598425197,
          "duration": 0.25
        },
        {
          "name": "G5",
          "midi": 79,
          "time": 6.25,
          "velocity": 0.6299212598425197,
          "duration": 0.25
        },
        {
          "name": "G5",
          "midi": 79,
          "time": 6.5,
          "velocity": 0.6299212598425197,
          "duration": 0.25
        },
        {
          "name": "E5",
          "midi": 76,
          "time": 6.75,
          "velocity": 0.6299212598425197,
          "duration": 0.25
        },
        {
          "name": "D5",
          "midi": 74,
          "time": 7,
          "velocity": 0.6299212598425197,
          "duration": 0.25
        },
        {
          "name": "C5",
          "midi": 72,
          "time": 7.25,
          "velocity": 0.6299212598425197,
          "duration": 0.25
        },
        {
          "name": "D5",
          "midi": 74,
          "time": 7.5,
          "velocity": 0.6299212598425197,
          "duration": 0.5
        },
        {
          "name": "A5",
          "midi": 81,
          "time": 8,
          "velocity": 0.6299212598425197,
          "duration": 0.25
        },
        {
          "name": "G5",
          "midi": 79,
          "time": 8.25,
          "velocity": 0.6299212598425197,
          "duration": 0.25
        },
        {
          "name": "E5",
          "midi": 76,
          "time": 8.5,
          "velocity": 0.6299212598425197,
          "duration": 0.75
        },
        {
          "name": "G5",
          "midi": 79,
          "time": 9.25,
          "velocity": 0.6299212598425197,
          "duration": 0.25
        },
        {
          "name": "G5",
          "midi": 79,
          "time": 9.5,
          "velocity": 0.6299212598425197,
          "duration": 0.25
        },
        {
          "name": "G5",
          "midi": 79,
          "time": 9.75,
          "velocity": 0.6299212598425197,
          "duration": 0.25
        },
        {
          "name": "A5",
          "midi": 81,
          "time": 10,
          "velocity": 0.6299212598425197,
          "duration": 0.25
        },
        {
          "name": "G5",
          "midi": 79,
          "time": 10.25,
          "velocity": 0.6299212598425197,
          "duration": 0.25
        },
        {
          "name": "E5",
          "midi": 76,
          "time": 10.5,
          "velocity": 0.6299212598425197,
          "duration": 0.25
        },
        {
          "name": "D5",
          "midi": 74,
          "time": 10.75,
          "velocity": 0.6299212598425197,
          "duration": 0.25
        },
        {
          "name": "C5",
          "midi": 72,
          "time": 11,
          "velocity": 0.6299212598425197,
          "duration": 0.25
        },
        {
          "name": "D5",
          "midi": 74,
          "time": 11.25,
          "velocity": 0.6299212598425197,
          "duration": 0.25
        },
        {
          "name": "A4",
          "midi": 69,
          "time": 11.5,
          "velocity": 0.6299212598425197,
          "duration": 0.5
        },
        {
          "name": "G4",
          "midi": 67,
          "time": 12,
          "velocity": 0.6299212598425197,
          "duration": 0.25
        },
        {
          "name": "A4",
          "midi": 69,
          "time": 12.25,
          "velocity": 0.6299212598425197,
          "duration": 0.25
        },
        {
          "name": "C5",
          "midi": 72,
          "time": 12.5,
          "velocity": 0.6299212598425197,
          "duration": 0.75
        },
        {
          "name": "E5",
          "midi": 76,
          "time": 13.25,
          "velocity": 0.6299212598425197,
          "duration": 0.25
        },
        {
          "name": "D5",
          "midi": 74,
          "time": 13.5,
          "velocity": 0.6299212598425197,
          "duration": 0.5
        },
        {
          "name": "E5",
          "midi": 76,
          "time": 14,
          "velocity": 0.6299212598425197,
          "duration": 0.5
        },
        {
          "name": "C5",
          "midi": 72,
          "time": 14.5,
          "velocity": 0.6299212598425197,
          "duration": 1.5
        },
        {
          "name": "E5",
          "midi": 76,
          "time": 16,
          "velocity": 0.6299212598425197,
          "duration": 0.25
        },
        {
          "name": "G5",
          "midi": 79,
          "time": 16.25,
          "velocity": 0.6299212598425197,
          "duration": 0.25
        },
        {
          "name": "C6",
          "midi": 84,
          "time": 16.5,
          "velocity": 0.6299212598425197,
          "duration": 0.75
        },
        {
          "name": "C6",
          "midi": 84,
          "time": 17.25,
          "velocity": 0.6299212598425197,
          "duration": 0.25
        },
        {
          "name": "B5",
          "midi": 83,
          "time": 17.5,
          "velocity": 0.6299212598425197,
          "duration": 0.5
        },
        {
          "name": "A5",
          "midi": 81,
          "time": 18,
          "velocity": 0.6299212598425197,
          "duration": 0.25
        },
        {
          "name": "G5",
          "midi": 79,
          "time": 18.25,
          "velocity": 0.6299212598425197,
          "duration": 0.25
        },
        {
          "name": "A5",
          "midi": 81,
          "time": 18.5,
          "velocity": 0.6299212598425197,
          "duration": 0.25
        },
        {
          "name": "C6",
          "midi": 84,
          "time": 18.75,
          "velocity": 0.6299212598425197,
          "duration": 0.25
        },
        {
          "name": "E5",
          "midi": 76,
          "time": 19,
          "velocity": 0.6299212598425197,
          "duration": 0.25
        },
        {
          "name": "D5",
          "midi": 74,
          "time": 19.25,
          "velocity": 0.6299212598425197,
          "duration": 0.25
        },
        {
          "name": "C5",
          "midi": 72,
          "time": 19.5,
          "velocity": 0.6299212598425197,
          "duration": 0.5
        },
        {
          "name": "C5",
          "midi": 72,
          "time": 20,
          "velocity": 0.6299212598425197,
          "duration": 0.25
        },
        {
          "name": "C5",
          "midi": 72,
          "time": 20.25,
          "velocity": 0.6299212598425197,
          "duration": 0.25
        },
        {
          "name": "C5",
          "midi": 72,
          "time": 20.5,
          "velocity": 0.6299212598425197,
          "duration": 0.25
        },
        {
          "name": "C6",
          "midi": 84,
          "time": 20.75,
          "velocity": 0.6299212598425197,
          "duration": 0.5
        },
        {
          "name": "A5",
          "midi": 81,
          "time": 21.25,
          "velocity": 0.6299212598425197,
          "duration": 0.25
        },
        {
          "name": "G5",
          "midi": 79,
          "time": 21.5,
          "velocity": 0.6299212598425197,
          "duration": 0.25
        },
        {
          "name": "E5",
          "midi": 76,
          "time": 21.75,
          "velocity": 0.6299212598425197,
          "duration": 0.25
        },
        {
          "name": "D5",
          "midi": 74,
          "time": 22,
          "velocity": 0.6299212598425197,
          "duration": 0.25
        },
        {
          "name": "C5",
          "midi": 72,
          "time": 22.25,
          "velocity": 0.6299212598425197,
          "duration": 0.25
        },
        {
          "name": "D5",
          "midi": 74,
          "time": 22.5,
          "velocity": 0.6299212598425197,
          "duration": 1.5
        },
        {
          "name": "E5",
          "midi": 76,
          "time": 24,
          "velocity": 0.6299212598425197,
          "duration": 0.25
        },
        {
          "name": "G5",
          "midi": 79,
          "time": 24.25,
          "velocity": 0.6299212598425197,
          "duration": 0.25
        },
        {
          "name": "C6",
          "midi": 84,
          "time": 24.5,
          "velocity": 0.6299212598425197,
          "duration": 0.75
        },
        {
          "name": "C6",
          "midi": 84,
          "time": 25.25,
          "velocity": 0.6299212598425197,
          "duration": 0.25
        },
        {
          "name": "B5",
          "midi": 83,
          "time": 25.5,
          "velocity": 0.6299212598425197,
          "duration": 0.5
        },
        {
          "name": "A5",
          "midi": 81,
          "time": 26,
          "velocity": 0.6299212598425197,
          "duration": 0.25
        },
        {
          "name": "G5",
          "midi": 79,
          "time": 26.25,
          "velocity": 0.6299212598425197,
          "duration": 0.25
        },
        {
          "name": "A5",
          "midi": 81,
          "time": 26.5,
          "velocity": 0.6299212598425197,
          "duration": 0.25
        },
        {
          "name": "C6",
          "midi": 84,
          "time": 26.75,
          "velocity": 0.6299212598425197,
          "duration": 0.25
        },
        {
          "name": "E5",
          "midi": 76,
          "time": 27,
          "velocity": 0.6299212598425197,
          "duration": 0.25
        },
        {
          "name": "D5",
          "midi": 74,
          "time": 27.25,
          "velocity": 0.6299212598425197,
          "duration": 0.25
        },
        {
          "name": "C5",
          "midi": 72,
          "time": 27.5,
          "velocity": 0.6299212598425197,
          "duration": 0.5
        },
        {
          "name": "C5",
          "midi": 72,
          "time": 28,
          "velocity": 0.6299212598425197,
          "duration": 0.25
        },
        {
          "name": "C5",
          "midi": 72,
          "time": 28.25,
          "velocity": 0.6299212598425197,
          "duration": 0.25
        },
        {
          "name": "C5",
          "midi": 72,
          "time": 28.5,
          "velocity": 0.6299212598425197,
          "duration": 0.25
        },
        {
          "name": "C6",
          "midi": 84,
          "time": 28.75,
          "velocity": 0.6299212598425197,
          "duration": 0.5
        },
        {
          "name": "A5",
          "midi": 81,
          "time": 29.25,
          "velocity": 0.6299212598425197,
          "duration": 0.25
        },
        {
          "name": "G5",
          "midi": 79,
          "time": 29.5,
          "velocity": 0.6299212598425197,
          "duration": 0.25
        },
        {
          "name": "E5",
          "midi": 76,
          "time": 29.75,
          "velocity": 0.6299212598425197,
          "duration": 0.25
        },
        {
          "name": "D5",
          "midi": 74,
          "time": 30,
          "velocity": 0.6299212598425197,
          "duration": 0.25
        },
        {
          "name": "C5",
          "midi": 72,
          "time": 30.25,
          "velocity": 0.6299212598425197,
          "duration": 0.25
        },
        {
          "name": "C5",
          "midi": 72,
          "time": 30.5,
          "velocity": 0.6299212598425197,
          "duration": 1
        },
        {
          "name": "G4",
          "midi": 67,
          "time": 32,
          "velocity": 0.6299212598425197,
          "duration": 0.25
        },
        {
          "name": "C5",
          "midi": 72,
          "time": 32.25,
          "velocity": 0.6299212598425197,
          "duration": 0.25
        },
        {
          "name": "E5",
          "midi": 76,
          "time": 32.5,
          "velocity": 0.6299212598425197,
          "duration": 0.75
        },
        {
          "name": "G5",
          "midi": 79,
          "time": 33.25,
          "velocity": 0.6299212598425197,
          "duration": 0.25
        },
        {
          "name": "E5",
          "midi": 76,
          "time": 33.5,
          "velocity": 0.6299212598425197,
          "duration": 0.5
        },
        {
          "name": "D5",
          "midi": 74,
          "time": 34,
          "velocity": 0.6299212598425197,
          "duration": 0.25
        },
        {
          "name": "C5",
          "midi": 72,
          "time": 34.25,
          "velocity": 0.6299212598425197,
          "duration": 0.25
        },
        {
          "name": "C5",
          "midi": 72,
          "time": 34.5,
          "velocity": 0.6299212598425197,
          "duration": 0.25
        },
        {
          "name": "C5",
          "midi": 72,
          "time": 34.75,
          "velocity": 0.6299212598425197,
          "duration": 0.25
        },
        {
          "name": "C5",
          "midi": 72,
          "time": 35,
          "velocity": 0.6299212598425197,
          "duration": 0.25
        },
        {
          "name": "A4",
          "midi": 69,
          "time": 35.25,
          "velocity": 0.6299212598425197,
          "duration": 0.25
        },
        {
          "name": "G4",
          "midi": 67,
          "time": 35.5,
          "velocity": 0.6299212598425197,
          "duration": 0.5
        },
        {
          "name": "G4",
          "midi": 67,
          "time": 36,
          "velocity": 0.6299212598425197,
          "duration": 0.25
        },
        {
          "name": "C5",
          "midi": 72,
          "time": 36.25,
          "velocity": 0.6299212598425197,
          "duration": 0.25
        },
        {
          "name": "E5",
          "midi": 76,
          "time": 36.5,
          "velocity": 0.6299212598425197,
          "duration": 0.75
        },
        {
          "name": "G5",
          "midi": 79,
          "time": 37.25,
          "velocity": 0.6299212598425197,
          "duration": 0.25
        },
        {
          "name": "G5",
          "midi": 79,
          "time": 37.5,
          "velocity": 0.6299212598425197,
          "duration": 0.25
        },
        {
          "name": "G5",
          "midi": 79,
          "time": 37.75,
          "velocity": 0.6299212598425197,
          "duration": 0.25
        },
        {
          "name": "A5",
          "midi": 81,
          "time": 38,
          "velocity": 0.6299212598425197,
          "duration": 0.25
        },
        {
          "name": "G5",
          "midi": 79,
          "time": 38.25,
          "velocity": 0.6299212598425197,
          "duration": 0.25
        },
        {
          "name": "G5",
          "midi": 79,
          "time": 38.5,
          "velocity": 0.6299212598425197,
          "duration": 0.25
        },
        {
          "name": "E5",
          "midi": 76,
          "time": 38.75,
          "velocity": 0.6299212598425197,
          "duration": 0.25
        },
        {
          "name": "D5",
          "midi": 74,
          "time": 39,
          "velocity": 0.6299212598425197,
          "duration": 0.25
        },
        {
          "name": "C5",
          "midi": 72,
          "time": 39.25,
          "velocity": 0.6299212598425197,
          "duration": 0.25
        },
        {
          "name": "D5",
          "midi": 74,
          "time": 39.5,
          "velocity": 0.6299212598425197,
          "duration": 0.5
        },
        {
          "name": "A5",
          "midi": 81,
          "time": 40,
          "velocity": 0.6299212598425197,
          "duration": 0.25
        },
        {
          "name": "G5",
          "midi": 79,
          "time": 40.25,
          "velocity": 0.6299212598425197,
          "duration": 0.25
        },
        {
          "name": "E5",
          "midi": 76,
          "time": 40.5,
          "velocity": 0.6299212598425197,
          "duration": 0.75
        },
        {
          "name": "G5",
          "midi": 79,
          "time": 41.25,
          "velocity": 0.6299212598425197,
          "duration": 0.25
        },
        {
          "name": "G5",
          "midi": 79,
          "time": 41.5,
          "velocity": 0.6299212598425197,
          "duration": 0.25
        },
        {
          "name": "G5",
          "midi": 79,
          "time": 41.75,
          "velocity": 0.6299212598425197,
          "duration": 0.25
        },
        {
          "name": "A5",
          "midi": 81,
          "time": 42,
          "velocity": 0.6299212598425197,
          "duration": 0.25
        },
        {
          "name": "G5",
          "midi": 79,
          "time": 42.25,
          "velocity": 0.6299212598425197,
          "duration": 0.25
        },
        {
          "name": "E5",
          "midi": 76,
          "time": 42.5,
          "velocity": 0.6299212598425197,
          "duration": 0.25
        },
        {
          "name": "D5",
          "midi": 74,
          "time": 42.75,
          "velocity": 0.6299212598425197,
          "duration": 0.25
        },
        {
          "name": "C5",
          "midi": 72,
          "time": 43,
          "velocity": 0.6299212598425197,
          "duration": 0.25
        },
        {
          "name": "D5",
          "midi": 74,
          "time": 43.25,
          "velocity": 0.6299212598425197,
          "duration": 0.25
        },
        {
          "name": "A4",
          "midi": 69,
          "time": 43.5,
          "velocity": 0.6299212598425197,
          "duration": 0.5
        },
        {
          "name": "G4",
          "midi": 67,
          "time": 44,
          "velocity": 0.6299212598425197,
          "duration": 0.25
        },
        {
          "name": "A4",
          "midi": 69,
          "time": 44.25,
          "velocity": 0.6299212598425197,
          "duration": 0.25
        },
        {
          "name": "C5",
          "midi": 72,
          "time": 44.5,
          "velocity": 0.6299212598425197,
          "duration": 0.75
        },
        {
          "name": "E5",
          "midi": 76,
          "time": 45.25,
          "velocity": 0.6299212598425197,
          "duration": 0.25
        },
        {
          "name": "D5",
          "midi": 74,
          "time": 45.5,
          "velocity": 0.6299212598425197,
          "duration": 0.5
        },
        {
          "name": "E5",
          "midi": 76,
          "time": 46,
          "velocity": 0.6299212598425197,
          "duration": 0.5
        },
        {
          "name": "C5",
          "midi": 72,
          "time": 46.5,
          "velocity": 0.6299212598425197,
          "duration": 1.5
        },
        {
          "name": "E5",
          "midi": 76,
          "time": 48,
          "velocity": 0.6299212598425197,
          "duration": 0.25
        },
        {
          "name": "G5",
          "midi": 79,
          "time": 48.25,
          "velocity": 0.6299212598425197,
          "duration": 0.25
        },
        {
          "name": "C6",
          "midi": 84,
          "time": 48.5,
          "velocity": 0.6299212598425197,
          "duration": 0.75
        },
        {
          "name": "C6",
          "midi": 84,
          "time": 49.25,
          "velocity": 0.6299212598425197,
          "duration": 0.25
        },
        {
          "name": "B5",
          "midi": 83,
          "time": 49.5,
          "velocity": 0.6299212598425197,
          "duration": 0.5
        },
        {
          "name": "A5",
          "midi": 81,
          "time": 50,
          "velocity": 0.6299212598425197,
          "duration": 0.25
        },
        {
          "name": "G5",
          "midi": 79,
          "time": 50.25,
          "velocity": 0.6299212598425197,
          "duration": 0.25
        },
        {
          "name": "A5",
          "midi": 81,
          "time": 50.5,
          "velocity": 0.6299212598425197,
          "duration": 0.25
        },
        {
          "name": "C6",
          "midi": 84,
          "time": 50.75,
          "velocity": 0.6299212598425197,
          "duration": 0.25
        },
        {
          "name": "E5",
          "midi": 76,
          "time": 51,
          "velocity": 0.6299212598425197,
          "duration": 0.25
        },
        {
          "name": "D5",
          "midi": 74,
          "time": 51.25,
          "velocity": 0.6299212598425197,
          "duration": 0.25
        },
        {
          "name": "C5",
          "midi": 72,
          "time": 51.5,
          "velocity": 0.6299212598425197,
          "duration": 0.5
        },
        {
          "name": "C5",
          "midi": 72,
          "time": 52,
          "velocity": 0.6299212598425197,
          "duration": 0.25
        },
        {
          "name": "C5",
          "midi": 72,
          "time": 52.25,
          "velocity": 0.6299212598425197,
          "duration": 0.25
        },
        {
          "name": "C5",
          "midi": 72,
          "time": 52.5,
          "velocity": 0.6299212598425197,
          "duration": 0.25
        },
        {
          "name": "C6",
          "midi": 84,
          "time": 52.75,
          "velocity": 0.6299212598425197,
          "duration": 0.5
        },
        {
          "name": "A5",
          "midi": 81,
          "time": 53.25,
          "velocity": 0.6299212598425197,
          "duration": 0.25
        },
        {
          "name": "G5",
          "midi": 79,
          "time": 53.5,
          "velocity": 0.6299212598425197,
          "duration": 0.25
        },
        {
          "name": "E5",
          "midi": 76,
          "time": 53.75,
          "velocity": 0.6299212598425197,
          "duration": 0.25
        },
        {
          "name": "D5",
          "midi": 74,
          "time": 54,
          "velocity": 0.6299212598425197,
          "duration": 0.25
        },
        {
          "name": "C5",
          "midi": 72,
          "time": 54.25,
          "velocity": 0.6299212598425197,
          "duration": 0.25
        },
        {
          "name": "C5",
          "midi": 72,
          "time": 54.5,
          "velocity": 0.6299212598425197,
          "duration": 1
        }
      ],
      "controlChanges": {},
      "id": 0,
      "instrumentNumber": 1,
      "instrument": "bright acoustic piano",
      "instrumentFamily": "piano",
      "channelNumber": 0,
      "isPercussion": false
    }
  ]
}